<?xml version="1.0" encoding="utf-8" ?>
<svg xmlns="http://www.w3.org/2000/svg" xmlns:xlink="http://www.w3.org/1999/xlink" width="2250" height="2335">
	<path d="M786.693 229.597C789.752 233.107 790.338 234.946 790.862 239.701C787.619 250.956 793.163 285.793 795.802 297.653C820.25 297.119 834.796 294.652 858.959 301.08C871.603 281.929 886.756 265.336 909.885 261.098C926.43 258.066 945.66 263.738 959.142 274.004C970.689 282.798 977.54 294.634 979.497 309.326C982.519 332.009 972.567 344.332 961.363 361.827C984.548 383.88 1009.01 406.999 1024.35 435.902C1030.38 447.264 1033.46 459.049 1036.23 471.643C1037.33 476.637 1037.85 484.346 1040.14 488.797C1041.96 492.325 1047.8 494.909 1050.86 497.231C1059.72 503.935 1063.87 516.347 1072.09 524.018C1081.64 523.28 1101.03 511.945 1112.24 508.71C1130.01 503.58 1148.16 499.738 1165.98 494.658C1220.14 479.217 1270.96 455.797 1313.85 417.514C1320.42 411.652 1329.59 406.403 1335.12 399.811C1353.22 378.217 1358.4 301.028 1398.58 297.302C1406.13 296.602 1414.54 298.139 1420.46 303.339C1426.03 308.236 1428.59 314.467 1430.89 321.429C1443.68 316.548 1456.47 310.828 1469.56 306.966C1491.12 300.61 1527.17 294.808 1548.2 305.239C1562.8 312.483 1572.39 330.223 1577.36 345.633C1585.65 371.279 1585.29 409.208 1573.24 433.62C1556.79 466.937 1528.51 492.757 1499.72 514.377C1491.65 520.434 1482.55 525.385 1475.08 532.205C1456.69 548.99 1441.61 570.179 1423.48 587.645C1387.01 622.779 1349.05 654.902 1307.82 683.893C1296.26 692.026 1283.88 698.772 1272.28 706.756C1298.05 727.866 1323.31 751.089 1341.64 779.618C1371.98 791.153 1406.37 804.242 1438.17 809.654C1456.53 812.78 1476.42 813.295 1495.01 813.735C1509.19 814.071 1522.92 813.161 1536.91 810.757C1539.02 810.395 1553.31 806.909 1554.46 807.524C1555.85 808.266 1557.39 810.736 1558 812.167C1558.88 814.212 1557.43 816.562 1556.53 818.49C1548.63 835.418 1524.42 884.895 1528.4 902.519C1534.27 910.135 1568.65 919.751 1579.43 926.178C1590.74 932.921 1601.61 942.812 1611.39 951.672C1655.33 991.443 1688.7 1046.37 1681.72 1109.13C1677.31 1148.68 1651.33 1183.91 1623.28 1209.27C1659.53 1237.62 1718.24 1292.27 1724.07 1340.88C1726.25 1359.06 1721.94 1378.53 1710.67 1392.8Q1709.2 1394.69 1707.58 1396.44Q1705.97 1398.2 1704.22 1399.82Q1702.48 1401.44 1700.61 1402.9Q1698.74 1404.37 1696.77 1405.67C1694.68 1407.04 1687.04 1409.68 1685.92 1411.37C1685.63 1411.8 1685.65 1412.38 1685.52 1412.89L1686.28 1412.83L1687.25 1414.71C1705.77 1425.63 1751.33 1449.19 1771.77 1452.01C1774.59 1452.39 1777.81 1451.54 1780.5 1450.75C1793.36 1446.98 1804.79 1438.94 1817.3 1434.07C1821.77 1435.04 1825.4 1435.33 1828.07 1439.61C1833.74 1448.72 1832.14 1458.94 1829.86 1468.93C1825 1490.2 1809.96 1509.04 1792.35 1520.58C1786.7 1520.77 1779.93 1521.64 1774.4 1520.54C1767.22 1519.11 1759.57 1515.77 1752.63 1513.29C1707.93 1497.34 1663.42 1475.13 1622.54 1450.48C1607.53 1441.44 1593.68 1429.29 1577.81 1421.93C1564.13 1415.58 1547.3 1414.73 1532.85 1410.13C1483.2 1394.34 1401.04 1362.69 1362.76 1326.34C1360.52 1324.22 1358.45 1321.9 1356.42 1319.57C1356.15 1319.95 1355.89 1320.33 1355.61 1320.7C1348.23 1330.77 1338.28 1339.41 1329.26 1347.89C1289.31 1385.45 1232.83 1425.46 1178.5 1432.94C1170.95 1433.98 1160.89 1432.17 1154.08 1435.1C1153.87 1438.33 1156.19 1440.97 1157.98 1443.4C1164.2 1451.88 1171.49 1459.52 1177.81 1467.94C1198.77 1495.85 1215.44 1523.84 1228.5 1556.53C1232.48 1566.49 1237.38 1577.15 1236.91 1588.15C1235.83 1613.48 1206.73 1655.84 1188.27 1672.53L1178.7 1681.09C1178.47 1685.64 1179.36 1687.6 1182.19 1690.88C1183.85 1692.81 1185.66 1694.61 1187.39 1696.47L1188.79 1695.9C1202.92 1689.99 1218.38 1681.3 1231.43 1672.94C1239.32 1667.89 1246.93 1661.56 1255.29 1657.42C1259.7 1655.23 1264.24 1653.6 1269.15 1654.26C1279.71 1660.96 1300.17 1694.26 1302.89 1707.08C1303.58 1710.33 1303.54 1712.25 1301.44 1714.92C1297.75 1719.61 1278.51 1732.83 1278.26 1737.12C1269.94 1739.83 1250.73 1756.43 1241.79 1762.47C1141.24 1830.44 929.569 1906.41 809.089 1879.6C786.013 1874.46 777.494 1863.44 765.4 1843.61C752.541 1822.53 748.906 1793.67 754.053 1769.62C757.068 1766.28 758.526 1762.72 762.513 1760.36C765.398 1760.06 766.932 1759.59 769.16 1761.97C773.425 1766.52 776.287 1773.46 779.39 1778.93C788.921 1795.7 802.442 1807.82 819.248 1816.11C843.04 1812.91 867.274 1812.8 891.136 1809.92C922.435 1806.15 951.47 1798.74 981.073 1787.6C985.432 1785.96 992.265 1785.26 995.179 1781.45C995.249 1778.2 995.137 1776.68 993.685 1773.68C991.785 1772.39 990.918 1771.77 988.527 1771.81C985.153 1771.86 981.573 1773.54 978.292 1774.35C964.964 1777.64 950.751 1780.81 937.157 1782.68C918.758 1785.2 858.216 1795.82 844.302 1783.58C834.634 1775.08 837.02 1749.44 835.945 1737.2C837.483 1717.49 842.273 1699.56 850.593 1681.83C866.563 1647.8 892.209 1610.37 928.103 1597.5L926.547 1584.22C927.908 1582.06 929.268 1580.06 930.016 1577.56C931.37 1573.06 923.945 1564.24 921.979 1560.03L921.388 1558.74C913.548 1557.99 905.524 1557.72 898.134 1554.68C887.559 1557.48 877.239 1561.17 866.496 1563.31C824.79 1571.6 753.392 1564.21 717.898 1539.16C683.855 1515.13 664.508 1477.8 657.182 1436.39C645.59 1370.85 665.756 1289.17 696.327 1231.5C702.416 1220.02 710.453 1209.12 717.646 1198.34C712.185 1178.96 704.263 1160.04 698.151 1140.82C687.169 1106.28 679.057 1072.04 672.303 1036.41C648.04 1051.88 623.98 1066.99 600.717 1084.11C584.882 1095.75 565.118 1114.64 548.461 1123.09C534.273 1150.05 516.417 1172.03 490.63 1187.66C462.981 1204.42 424.988 1217.57 392.942 1208.5C375.843 1203.65 362.921 1192.32 354.26 1176.47C342.634 1155.19 342.033 1116.83 345.402 1093.2C346.801 1083.39 349.754 1073.65 352.304 1064.1C342.23 1049.41 340.848 1040.76 343.25 1023.1C372.453 981.063 399.907 993.443 438.849 974.169L440.116 973.526C469.576 924.484 503.887 882.886 541.924 840.972C574.142 805.469 601.175 777.082 639.354 748.222C646.569 742.769 653.267 736.681 660.987 731.978C656.168 720.576 651.56 709.202 647.386 697.523C612.414 675.252 593.868 632.135 589.863 591.155C589.093 583.277 589.621 564.86 586.766 558.449C585.463 555.526 573.124 551.803 569.98 550.37C556.885 544.403 544.62 533.162 536.062 521.368C525.72 507.113 521.277 484.841 524.145 467.199C526.986 449.721 535.144 437.145 549.124 427.221C572.49 410.634 579.591 418.821 601.998 422.685C602.448 422.763 605.385 423.123 605.514 423.094C605.97 422.995 629.921 386.39 638.163 380.295C631.717 374.062 625.224 367.825 618.429 362.002C609.831 354.633 590.308 342.649 585.273 333.253C586.052 330.095 586.781 330.284 589.511 328.573C597.1 331.461 636.746 367.003 644.819 374.649C680.904 343.223 706.802 328.975 750.332 310.815C755.204 308.783 783.57 301.006 784.601 299.183C790.297 289.11 774.571 242.126 781.797 230.426L786.693 229.597ZM1112.04 1737.31C1120.46 1732.84 1128.12 1727.59 1136 1722.18C1138.53 1720.44 1140.12 1718.61 1140.63 1715.42C1140.96 1713.36 1140.38 1713.4 1139.22 1711.94C1138.03 1711.78 1137.3 1711.61 1136.04 1711.83C1134.11 1712.15 1103.49 1728.71 1098.45 1730.92C1095.28 1732.3 1088.66 1734.02 1087.01 1737.05C1095.31 1737.03 1103.76 1736.7 1112.04 1737.31Z"/>
	<path fill="#F8FCFE" d="M381.224 1071.34C373.929 1068.14 367.177 1063.87 361.585 1058C355.926 1052.06 351.016 1044.07 351.208 1035.42C351.382 1027.58 355.724 1021.47 361.028 1016.29C386.509 991.444 424.043 998.671 441.447 983.313C453.653 972.542 466.345 947.596 476.438 933.4C488.197 916.86 505.992 894.534 519.129 879.319C530.436 866.225 542.557 854.132 554.167 841.37C569.727 824.267 584.408 806.669 601.659 791.286C621.411 773.671 644.041 759.027 663.201 740.961L664.197 740.004C669.791 756.288 675.218 772.539 684.133 787.241C687.255 789.188 690.308 790.623 693.691 792.017C703.421 798.381 713.312 804.898 723.947 809.522C772.227 830.513 839.145 832.253 889.656 820.479C923.211 812.657 987.655 782.985 1012.29 757.775Q1032.19 781.246 1053.21 803.646Q1074.23 826.046 1096.31 847.318C1161.69 910.442 1220.83 955.185 1306.64 984.505C1318.37 988.514 1329.99 994.288 1342.1 996.831C1367.64 1002.19 1397.56 1007.44 1423.3 1010.56C1434.22 1011.88 1469.24 1013 1476.24 1015.69L1488.46 1014.78C1498.21 977.453 1494.33 1002.45 1511.1 986.366C1511.37 986.101 1511.64 985.826 1511.91 985.557L1511.81 979.546C1513.14 958.179 1520.57 936.642 1523.51 915.303C1563.88 923.604 1611.53 957.996 1634.76 993.134C1640.49 1001.81 1644.95 1014.24 1651.89 1021.62C1668.41 1044.54 1673.19 1085.35 1669.22 1113.1C1664.24 1147.93 1638.33 1180.33 1611.57 1200.5C1590.74 1216.2 1566.81 1232.59 1543.29 1243.45C1511.95 1257.91 1458.86 1269.35 1424.31 1272.23C1414.61 1273.04 1400.62 1275.88 1391.32 1274.31C1389.63 1274.02 1390.18 1274.07 1388.96 1272.37C1389.48 1266.2 1395.83 1257.65 1398.81 1252.18C1410.53 1230.68 1422.44 1205.7 1422.2 1180.48L1421.76 1180.76L1422.56 1182.08L1421.63 1180.91C1407.21 1206.96 1399.2 1236.09 1382.7 1261.25C1364.62 1288.83 1342.82 1307.39 1318.12 1327.84C1273.93 1364.45 1225.43 1396.48 1170.36 1412.13C1091.62 1434.52 976.386 1417.56 897.61 1397.26C915.174 1407.1 933.474 1416.85 952.378 1423.59C990.266 1437.11 1038.43 1441.95 1078.25 1441.31C1051.3 1463.01 1023.81 1485.24 994.27 1503C941.025 1535 856.06 1560.95 794.819 1553.03C753.291 1547.66 716.927 1531.9 691.266 1496.71C689.575 1494.39 688.192 1491.86 686.888 1489.29C676.495 1478.59 668.442 1443.25 666.015 1427.98C654.368 1354.66 682.415 1268.72 723.285 1209.5L723.736 1210.74L724.515 1212.78C731.535 1231.52 754.34 1265.65 767.345 1280.61C769.568 1283.17 773.178 1287.19 776.55 1287.39C773.623 1273.29 749.702 1237.87 741.777 1223.26C736.869 1214.2 733.207 1204.41 729.521 1194.77C710.674 1145.48 697.483 1098.09 686.321 1046.53C681.808 1025.68 677.167 1004.66 674.273 983.49C670.467 955.649 669.819 927.347 666.285 899.421C657.086 936.904 658.785 961.641 664.435 999.33L667.879 1014.1C652.531 1027.27 635.442 1037.63 619.303 1049.63C600.583 1063.55 583.069 1078.9 565.43 1094.19L564.352 1093.39C564.572 1088.3 568.168 1078.36 566.814 1074.24C557.796 1083.3 553.266 1099.27 546.577 1110.44C537.804 1125.1 527.786 1140.64 516.169 1152.99C490.289 1180.51 446.629 1201.48 409.209 1201.21C394.161 1201.11 382.11 1195.46 371.883 1184.12C367.274 1179.02 360.743 1170.58 358.969 1163.85C358.587 1163.19 358.167 1162.55 357.824 1161.86C350.447 1147.07 350.766 1109.49 352.756 1092.7C353.672 1084.97 355.692 1077.44 357.64 1069.93C364.74 1075.12 372.777 1080.99 381.392 1082.95C382.995 1083.31 382.132 1083.05 384.145 1083.75C384.493 1083.88 384.836 1084.01 385.182 1084.14C391.023 1085.59 396.898 1086.3 402.848 1087.06C409.391 1095.84 416.492 1105.71 424.986 1112.54C435.24 1120.78 452.703 1134.18 466.31 1132.53L466.882 1131.44C466.686 1130.94 448.844 1123.23 444.267 1119.83C422.386 1103.55 417.184 1091.06 402.556 1069.43C400.527 1066.43 398.842 1064.68 395.371 1064L394.027 1065.84C394.267 1070.5 397.263 1074.78 399.423 1078.77C393.526 1077.06 386.193 1075.13 381.224 1071.34Z"/>
	<path fill="#C6ECFA" d="M693.691 792.017C703.421 798.381 713.312 804.898 723.947 809.522C772.227 830.513 839.145 832.253 889.656 820.479C923.211 812.657 987.655 782.985 1012.29 757.775Q1032.19 781.246 1053.21 803.646Q1074.23 826.046 1096.31 847.318C1161.69 910.442 1220.83 955.185 1306.64 984.505C1318.37 988.514 1329.99 994.288 1342.1 996.831C1367.64 1002.19 1397.56 1007.44 1423.3 1010.56C1434.22 1011.88 1469.24 1013 1476.24 1015.69C1469.82 1017.17 1461.88 1015.8 1455.33 1015.32C1450.1 1021.53 1443.55 1026.61 1435.88 1029.05C1421.19 1033.71 1405.45 1028.77 1390.77 1026.7C1304.5 1014.56 1235.05 978.952 1161.66 932.399C1140.17 918.767 1118.54 905.287 1098.36 889.591C1080.76 875.901 1064.71 860.514 1048.41 845.231C1038.05 835.517 1026.59 822.477 1014.12 815.836C1009.57 813.415 1005.05 813.101 1000.05 814.004C991.852 815.484 983.964 820.19 976.072 822.936L919.947 842.968C882.179 856.337 779.014 868.097 743.031 848.917C733.426 843.797 726.17 835.564 717.378 829.26C710.993 824.682 703.646 822.029 697.773 816.562C694.872 813.862 692.417 810.636 691.336 806.696C689.863 801.327 691.202 796.749 693.691 792.017Z"/>
	<path fill="#C6ECFA" d="M1651.89 1021.62C1668.41 1044.54 1673.19 1085.35 1669.22 1113.1C1664.24 1147.93 1638.33 1180.33 1611.57 1200.5C1590.74 1216.2 1566.81 1232.59 1543.29 1243.45C1511.95 1257.91 1458.86 1269.35 1424.31 1272.23C1414.61 1273.04 1400.62 1275.88 1391.32 1274.31C1389.63 1274.02 1390.18 1274.07 1388.96 1272.37C1389.48 1266.2 1395.83 1257.65 1398.81 1252.18C1410.53 1230.68 1422.44 1205.7 1422.2 1180.48L1421.76 1180.76L1422.56 1182.08L1421.63 1180.91C1407.21 1206.96 1399.2 1236.09 1382.7 1261.25C1364.62 1288.83 1342.82 1307.39 1318.12 1327.84C1273.93 1364.45 1225.43 1396.48 1170.36 1412.13C1091.62 1434.52 976.386 1417.56 897.61 1397.26C915.174 1407.1 933.474 1416.85 952.378 1423.59C990.266 1437.11 1038.43 1441.95 1078.25 1441.31C1051.3 1463.01 1023.81 1485.24 994.27 1503C941.025 1535 856.06 1560.95 794.819 1553.03C753.291 1547.66 716.927 1531.9 691.266 1496.71C689.575 1494.39 688.192 1491.86 686.888 1489.29C692.002 1492.72 696.823 1496.94 701.753 1500.68C712.22 1508.62 722.934 1514.93 735.773 1517.59C773.949 1525.51 868.337 1508.33 904.864 1492.77C923.096 1485.01 960.106 1461.47 976.916 1458.74L978.18 1460.76L979.381 1459.65L980.255 1461.01L979.507 1463.29C977.652 1464.48 976.333 1465.36 974.138 1465.67C969.894 1466.27 967.873 1467.04 964.298 1469.62C963.269 1470.36 953.907 1473.09 951.807 1473.43L954.574 1475.84C951.944 1478.15 946.359 1475.08 943.609 1477.72C945.172 1478.07 945.732 1478.16 947.02 1479.22C944.921 1481.49 941.028 1478.86 938.242 1482.12C932.455 1488.9 920.405 1487.98 913.269 1492.59C914.706 1494.09 913.957 1493.22 915.459 1495.23C895.782 1502.71 875.013 1508.87 854.433 1513.02C830.085 1517.94 740.788 1531.35 722.52 1518.47C719.295 1516.2 716.725 1514.61 712.917 1513.62L712.266 1514.07L712.602 1516.97C715.949 1521.62 720.731 1524.41 725.536 1527.2C770.26 1553.21 821.318 1557.31 871.104 1547.45C884.251 1544.85 897.294 1540.57 910.193 1536.87L909.741 1533.15C916.694 1530.17 925.066 1531.04 932.227 1528.78C934.96 1527.91 935.172 1526.8 936.381 1524.35L937.617 1525.28L936.551 1523.6L936.593 1523.66L936.779 1522.54C937.278 1522.33 937.77 1522.1 938.276 1521.9C956.522 1514.81 985.173 1495.77 1002.6 1493.19C1004.65 1492.89 1005.08 1492.91 1006.96 1491.8L1005.9 1490.49L1006.09 1489.15C1020.25 1484.67 1051.64 1461.54 1062.36 1450.14C1062.69 1449.79 1063.01 1449.43 1063.33 1449.08L1063.85 1449.9L1061.71 1447.36L1061.95 1446.5L1061.08 1450.83L1059.66 1451.63L1058.96 1450.39C1059.47 1448.62 1059.81 1447.07 1059.95 1445.22C1055.48 1442.19 1006.34 1438.56 996.994 1437.28C989.045 1436.19 981.38 1433.54 973.46 1432.58C962.857 1438.4 945.177 1436.48 933.259 1435.96C914.742 1435.16 897.363 1427.95 884.781 1413.57L883.702 1412.32C883.727 1408.32 883.357 1403.4 884.743 1399.66C888.756 1388.83 900.845 1385.61 910.878 1385.3C925.428 1384.86 940.562 1387.23 955.263 1387.34C1041.36 1387.98 1133.3 1387.79 1213.38 1351.24C1272.92 1324.08 1322.19 1290.73 1358.81 1233.53C1366.25 1221.89 1375.3 1206.95 1378.76 1193.37C1384.2 1172.07 1378.57 1146.67 1386.64 1126.54C1388.92 1120.86 1392.37 1116.09 1398.06 1113.83C1403.16 1111.81 1409.98 1112.08 1414.89 1114.56C1419.35 1116.82 1424.25 1122.35 1425.49 1127.35C1426.17 1130.1 1426.59 1132.09 1425.13 1134.49C1418.25 1130.86 1416.75 1120.57 1408.03 1118.53C1403.87 1117.56 1399.48 1119.39 1396.13 1121.86C1388.89 1127.21 1389.07 1135.48 1387.56 1143.64C1385.48 1154.86 1387.23 1165.04 1386.59 1176.18C1385.86 1188.78 1380.52 1201.41 1376.05 1213.01C1370.7 1226.91 1322.94 1292.38 1312.62 1296.97L1312.28 1294.23C1295.97 1310.88 1266.2 1333.99 1243.99 1340.59C1236.67 1342.77 1235.31 1348.54 1229.29 1351.17C1221.36 1354.63 1197.7 1360.54 1193.04 1366.43C1192.71 1366.86 1192.4 1367.31 1192.08 1367.75L1190.57 1367.6L1190.46 1365.53C1187.72 1364.31 1179.58 1371.68 1175.49 1372.18C1165.29 1373.45 1158.6 1380.08 1148.11 1376.57C1142.21 1379.06 1136.28 1380.47 1130.28 1382.54C1125.02 1384.35 1117.25 1383.52 1111.61 1383.58L1114.74 1384.14C1107.09 1384.33 1080.9 1389.82 1077.62 1388.62C1075.33 1387.78 1073.56 1387.44 1071.13 1387.14L1070 1387.91C1069.5 1388.24 1068.99 1388.54 1068.5 1388.88C1067.1 1389.88 1067.42 1390 1065.61 1390.54C1060.72 1391.99 995.568 1392.08 982.99 1392.84C977.087 1393.19 974.736 1390.47 969.485 1389.88C963.894 1389.24 955.608 1392.36 949.78 1392.98L950.932 1390.17L949.566 1389.67C946.617 1390.77 943.722 1392.17 940.547 1391.66C932.919 1390.44 925.036 1390.44 917.3 1390.1L916.274 1388.18L916.067 1389.81C913.464 1388.47 911.64 1387.64 908.709 1387.23C906.548 1390.04 902.606 1390.79 899.375 1392.09L899.073 1393.58C900.385 1394.18 901.804 1394.75 903.077 1395.45C913.726 1401.27 963.78 1410.1 978.325 1412.58C994.623 1415.36 1011.87 1416.02 1028.36 1417.57C1144.08 1428.46 1220.67 1405.59 1311.37 1330.34C1336.96 1309.1 1360.92 1289.6 1379.61 1261.18C1395.84 1236.5 1404.39 1209.25 1417.26 1183.02C1418.49 1180.53 1419.46 1178.31 1421.68 1176.61C1423.51 1177.25 1424.81 1177.57 1426.74 1177.5C1428.13 1168.79 1422.78 1156.99 1425.98 1148.69C1426.85 1146.45 1426.51 1148.26 1426.74 1145.27C1427.01 1141.9 1427.18 1139.84 1429.09 1137.04C1430.93 1138.62 1427.8 1154.33 1428.7 1159.34C1429.09 1161.52 1429.2 1168.04 1430.03 1169.67C1430.32 1170.23 1431.79 1170.93 1431.85 1171.54L1429.98 1171.81C1429.38 1184.49 1429.29 1195.99 1425.11 1208.08L1424.2 1208.35L1421.65 1205.09C1417.32 1228.01 1402.21 1250.9 1391.67 1271.43L1392.39 1272C1410.96 1271.03 1430.41 1270.54 1448.74 1267.36C1480.49 1261.84 1522.69 1251.84 1551.37 1236.91C1561.24 1231.76 1570.69 1224.55 1580.2 1218.6C1609.26 1200.45 1631.26 1182.73 1651 1153.63Q1651.68 1152.61 1652.33 1151.57Q1652.99 1150.53 1653.62 1149.48Q1654.25 1148.42 1654.86 1147.35Q1655.47 1146.28 1656.05 1145.2Q1656.63 1144.11 1657.19 1143.01Q1657.75 1141.91 1658.28 1140.8Q1658.81 1139.69 1659.32 1138.57Q1659.83 1137.44 1660.31 1136.3Q1660.79 1135.17 1661.24 1134.02Q1661.7 1132.87 1662.13 1131.71Q1662.56 1130.55 1662.96 1129.38Q1663.36 1128.21 1663.74 1127.03Q1664.11 1125.85 1664.46 1124.66Q1664.81 1123.48 1665.13 1122.28Q1665.45 1121.08 1665.74 1119.88Q1666.03 1118.68 1666.3 1117.46Q1666.56 1116.25 1666.8 1115.04Q1667.04 1113.82 1667.25 1112.6Q1667.46 1111.37 1667.64 1110.15Q1667.82 1108.92 1667.98 1107.69Q1668.13 1106.46 1668.26 1105.22Q1668.38 1103.99 1668.48 1102.75Q1668.58 1101.51 1668.65 1100.27Q1668.72 1099.03 1668.76 1097.79Q1668.8 1096.55 1668.81 1095.31Q1668.82 1094.07 1668.8 1092.82Q1668.79 1091.58 1668.74 1090.34Q1668.7 1089.1 1668.63 1087.86Q1668.55 1086.62 1668.45 1085.39Q1668.35 1084.15 1668.22 1082.91Q1668.09 1081.68 1667.93 1080.45Q1667.78 1079.22 1667.59 1077.99C1666.56 1071.32 1662.9 1061.57 1663.07 1055.22C1663.08 1054.59 1663.25 1053.97 1663.34 1053.35L1660.98 1052.87L1661.72 1051.78L1660.94 1053.03C1661.93 1057.55 1661.13 1061.44 1662.2 1064.89C1657.73 1070.75 1659.33 1079.84 1657.6 1086.84C1655.75 1094.35 1651.32 1100.88 1647.91 1107.65C1647.8 1107.87 1647.77 1108.12 1647.65 1108.34C1631.53 1137.37 1562.07 1196.39 1531.07 1207.41C1530.59 1207.58 1530.12 1207.73 1529.65 1207.89L1529.57 1210.21L1528.59 1208.29L1526.79 1209.05L1526.92 1213.09L1528.37 1213.71C1525.01 1215.21 1523.69 1212.45 1519.81 1214.06C1512.22 1217.2 1504.52 1224.3 1496.38 1225.25C1474.17 1227.85 1450.85 1236.61 1429.16 1227.67L1432.63 1227.61C1433.1 1227.2 1433.53 1226.73 1434.05 1226.38C1436.4 1224.77 1440.64 1226.24 1443.16 1226.85C1455.16 1229.72 1481.17 1224.1 1493.48 1220.47C1540.48 1206.61 1622.44 1145.71 1646.14 1101.07C1659.51 1075.88 1659.36 1048.85 1651.89 1021.62Z"/>
	<path fill="#C6ECFA" d="M664.435 999.33L667.879 1014.1C652.531 1027.27 635.442 1037.63 619.303 1049.63C600.583 1063.55 583.069 1078.9 565.43 1094.19L564.352 1093.39C564.572 1088.3 568.168 1078.36 566.814 1074.24C557.796 1083.3 553.266 1099.27 546.577 1110.44C537.804 1125.1 527.786 1140.64 516.169 1152.99C490.289 1180.51 446.629 1201.48 409.209 1201.21C394.161 1201.11 382.11 1195.46 371.883 1184.12C367.274 1179.02 360.743 1170.58 358.969 1163.85C359.257 1164.08 359.557 1164.3 359.834 1164.55C375.766 1178.83 408.486 1182.41 428.475 1177.52C436.372 1175.59 447.064 1168.98 455.063 1170.03L455.79 1171.6L452.313 1172.23C452.624 1174.46 452.686 1173.44 452.308 1175.29C449.225 1175.05 445.698 1174.25 442.847 1175.72C444.635 1175.8 446.104 1176.03 447.827 1176.53L447.67 1178.24C445.341 1178.64 442.933 1178.97 440.754 1179.95C422.749 1188 403.165 1181.65 384.667 1180.96C382.609 1180.88 380.462 1181.65 378.5 1181.51C376.269 1181.35 375.453 1179.97 374.19 1178.32C372.626 1176.28 371.612 1175.56 369.2 1174.6L368.622 1175.54C370.011 1177.78 371.009 1179.47 373.002 1181.18C375.592 1183.41 378.023 1185.71 380.441 1188.14C382.664 1190.38 384.823 1192.9 387.537 1194.51C407.493 1206.37 442.852 1192.74 462.855 1186.51C488.107 1178.64 514.707 1153.56 530.053 1131.86C532.986 1127.71 534.593 1123.11 537.231 1118.89C541.139 1112.63 546.366 1107.27 550.057 1100.84C554.678 1092.78 555.12 1084.79 561.543 1077.44C561.897 1077.04 562.263 1076.64 562.623 1076.24L561.162 1073.38L561.807 1072.99C547.769 1079.5 535.446 1089.49 522.756 1098.37C515.749 1103.27 510.613 1114.27 505.958 1121.57C505.665 1121.55 505.372 1121.49 505.08 1121.51C504.605 1121.54 504.137 1121.64 503.666 1121.7L502.915 1120.03L501.246 1120.75C502.439 1112.69 520.525 1093.45 526.759 1087.29C535.441 1078.72 552.532 1072.17 563.052 1064.88C590.37 1045.97 614.91 1020.82 644.972 1006.31C650.439 1003.67 656.879 1004.42 662.767 1004.51L664.435 999.33Z"/>
	<path fill="#C6ECFA" d="M381.224 1071.34C383.808 1063.72 387.023 1057.15 394.496 1053.7C399.974 1051.17 406.142 1051.68 411.612 1053.96C425.317 1059.66 430.916 1072.24 441.187 1081.85C453.431 1093.29 466.615 1103.7 479.064 1114.91C479.988 1119.82 483.909 1119.3 484.583 1122.83L479.622 1123.38L478.455 1125.07C476.191 1121.58 475.165 1117.98 471.846 1115.37L470.917 1117.17C470.599 1116.56 470.298 1115.94 469.963 1115.34C468.234 1112.23 465.321 1110.64 462.311 1109.1C456.85 1106.32 453.33 1101.04 449.567 1096.24L450.246 1096.84L448.417 1096.75L448.096 1098.54C446.788 1098.12 446.559 1097.37 445.728 1096.28L446.002 1094.35L448.194 1092.71C446.772 1090.92 447.15 1090.83 444.792 1090.3L444.549 1093.87C439.605 1093.32 419.431 1063.11 414.312 1063.42L410.222 1059.53C409.969 1059.69 409.736 1059.89 409.464 1060.02C404.665 1062.28 397.66 1059.03 392.321 1061.1L392.754 1062.27C398.236 1062.45 399.566 1061.6 403.48 1066C407.414 1070.42 410.194 1077.06 413.238 1082.26C418.59 1091.39 425.946 1100.95 433.491 1108.25C441.991 1116.47 463.845 1124.55 468.594 1131.91L467.869 1133.47C457.912 1136.05 446.977 1131.21 438.563 1125.86C428.317 1119.36 419.363 1110.84 411.207 1101.75C408.628 1098.88 404.419 1092.37 401.497 1090.4C399.069 1088.77 393.514 1088.19 390.611 1087.76L389.203 1088.48C389.626 1088.66 390.07 1088.8 390.473 1089.03C395.72 1092 399.685 1098.6 402.654 1103.84C405.09 1108.13 410.171 1111.45 410.916 1116.5L409.544 1117.13C401.331 1112.82 388.557 1095.26 385.713 1086.01C385.522 1085.39 385.359 1084.77 385.182 1084.14C391.023 1085.59 396.898 1086.3 402.848 1087.06C409.391 1095.84 416.492 1105.71 424.986 1112.54C435.24 1120.78 452.703 1134.18 466.31 1132.53L466.882 1131.44C466.686 1130.94 448.844 1123.23 444.267 1119.83C422.386 1103.55 417.184 1091.06 402.556 1069.43C400.527 1066.43 398.842 1064.68 395.371 1064L394.027 1065.84C394.267 1070.5 397.263 1074.78 399.423 1078.77C393.526 1077.06 386.193 1075.13 381.224 1071.34Z"/>
	<path fill="#F8FCFE" d="M652.174 382.058C665.428 372.542 677.995 361.631 691.501 352.607C715.451 336.604 757.971 317.228 786.067 312.636C790.133 316.146 788.909 322.375 792.747 326.583C795.502 327.457 795.896 327.488 798.679 326.738C801.534 321.982 798.268 315.56 800.764 310.293C810.708 303.39 855.931 314.371 862.875 312.378C867.982 310.911 879.734 278.829 910.905 272.411C923.573 269.803 939.378 271.747 950.053 279.725C957.377 285.2 962.341 293.096 964.931 302.014C975.029 336.796 949.326 349.769 951.429 365.473C952.35 367.424 952.805 368.582 954.624 369.813C955.014 370.076 955.439 370.279 955.846 370.512C970.403 384.602 985.513 398.212 996.416 415.72C1017.33 441.856 1027.48 469.327 1024.45 503.718C1022.11 530.242 1002.18 568.914 982.321 586.208C981.919 586.558 981.507 586.896 981.101 587.24C983.912 576.102 992.373 559.951 990.697 548.819L989.496 547.678C983.868 550.894 980.054 563.839 977.342 570.114C968.483 590.612 950.383 626.554 936.323 643.132C905.1 679.949 856.713 691.869 811.215 691.358C789.031 691.11 759.592 691.481 738.62 684.573C737.228 684.115 737.046 684.004 735.884 683.479C731.324 682.538 725.901 681.943 721.668 679.961C719.853 679.112 719.416 678.867 717.408 678.34L717.54 680.549C728.681 696.832 745.322 691.492 759.308 700.178C758.181 700.703 758.115 700.794 756.702 701.098C751.718 702.171 745.109 701.633 740.009 701.468C708.394 700.44 674.54 691.569 648.168 673.017C621.093 653.971 602.971 621.301 600.273 587.255C599.47 577.121 601.407 562.941 598.499 553.442C598.434 553.229 597.709 551.311 597.275 551.012C590.804 546.552 578.888 545.772 571.073 540.926C556.923 532.152 541.586 514.07 537.704 497.171C534.911 485.08 533.304 473.422 537.708 461.393C542.245 448.999 551.986 437.866 563.711 432.479C577.647 426.075 592.552 429.505 606.143 434.975C620.425 420.919 631.695 403.908 644.529 388.472C646.654 391.052 649.277 394.822 652.102 396.554C655.286 398.507 657.998 399.017 661.646 398.158C663.602 395.694 663.339 395.796 663.053 392.576C660.563 387.777 656.332 385.186 652.174 382.058Z"/>
	<path fill="#C6ECFA" d="M996.416 415.72C1017.33 441.856 1027.48 469.327 1024.45 503.718C1022.11 530.242 1002.18 568.914 982.321 586.208C981.919 586.558 981.507 586.896 981.101 587.24C983.912 576.102 992.373 559.951 990.697 548.819L989.496 547.678C983.868 550.894 980.054 563.839 977.342 570.114C968.483 590.612 950.383 626.554 936.323 643.132C905.1 679.949 856.713 691.869 811.215 691.358C789.031 691.11 759.592 691.481 738.62 684.573C737.228 684.115 737.046 684.004 735.884 683.479C731.324 682.538 725.901 681.943 721.668 679.961C719.853 679.112 719.416 678.867 717.408 678.34L717.54 680.549C728.681 696.832 745.322 691.492 759.308 700.178C758.181 700.703 758.115 700.794 756.702 701.098C751.718 702.171 745.109 701.633 740.009 701.468C708.394 700.44 674.54 691.569 648.168 673.017C621.093 653.971 602.971 621.301 600.273 587.255C599.47 577.121 601.407 562.941 598.499 553.442C598.434 553.229 597.709 551.311 597.275 551.012C590.804 546.552 578.888 545.772 571.073 540.926C556.923 532.152 541.586 514.07 537.704 497.171C538.355 497.035 539.169 497.23 539.657 496.763C540.345 496.102 542.015 489.898 542.494 488.588C544.569 482.918 547.365 477.701 550.73 472.747C554.973 466.501 560.231 460.96 567.715 459.671C570.675 458.678 572.279 456.295 574.264 453.956C581.488 451.856 588.305 449.755 595.855 449.504C598.29 450.646 600.068 450.921 600.94 453.838C603.518 462.474 597.278 482.346 596.553 492.324C596.651 495.332 596.825 498.343 596.815 501.352C596.787 510.278 611.112 523.047 614.356 533.891C623.545 564.601 614.233 611.714 638.462 636.279C646.757 644.689 658.024 649.154 668.682 653.325C708.591 668.943 753.767 675.705 796.442 674.004C814.302 673.292 847.242 668.956 862.648 660.079C873.796 662.786 881.889 662.092 892.594 658.17C896.877 653.143 900.132 647.813 903.516 642.124C907.109 643.046 909.619 641.12 912.79 639.206C932.084 627.562 950.124 595.148 960.271 574.93C961.355 572.769 963.669 567.102 966.301 567.398C966.899 571.287 966.768 572.9 964.76 576.25L965.607 579.729C958.224 592.351 948.809 603.766 941.947 616.747C941.079 618.388 940.639 618.699 939.321 619.881C922.952 634.569 906.591 656.036 885.47 663.3C880.837 667.176 874.861 669.243 869.421 671.654C875.802 670.085 902.002 667.386 905.342 665.553C905.733 665.338 906.108 665.094 906.495 664.871C936.657 647.411 956.466 610.581 970.418 578.957C974.596 569.488 977.923 557.978 983.195 549.25C984.885 546.452 987.111 545.027 990.13 544.118L991.978 545.636C994.213 555.047 990.203 564.841 988.57 574.109L989.223 574.696C991.321 571.76 993.401 568.827 995.701 566.057C1006.85 552.627 1019.79 524.099 1022.19 506.194C1026.69 472.497 1014.79 445.372 995.884 419.219L996.416 415.72Z"/>
	<path d="M574.264 453.956C581.488 451.856 588.305 449.755 595.855 449.504C598.29 450.646 600.068 450.921 600.94 453.838C603.518 462.474 597.278 482.346 596.553 492.324C594.726 502.997 594.892 513.819 594.875 524.628C590.227 524.47 585.584 524.541 581.05 523.373C576.906 520.603 572.478 517.461 569.137 513.668C561.335 504.811 557.45 492.476 558.016 480.546C558.442 471.542 561.24 465.567 567.715 459.671C570.675 458.678 572.279 456.295 574.264 453.956Z"/>
	<path d="M839.804 589.051C820.709 593.121 790.332 596.766 773.162 584.65C770.154 582.528 767.749 579.626 767.53 575.666C767.016 566.343 777.136 555.161 783.417 549.18C799.423 533.937 842.295 510.778 864.134 512.473C868.342 512.8 871.692 514.549 874.243 518.076C876.383 521.036 878.034 524.557 879.725 527.809C875.999 550.119 868.624 570.036 850.111 583.628Q848.961 584.467 847.795 585.28C851.765 592.831 857.143 609.315 865.546 611.535C873.779 613.71 885.564 607.71 892.092 603.02C899.792 597.489 909.534 583.517 910.422 573.429C910.615 571.237 910.276 570.026 909.478 568.047C907.116 566.255 905.265 565.997 902.456 565.447C900.589 563.567 899.486 562.647 899.053 559.919C900.898 557.699 902.213 557.33 905.066 557.204C911.655 556.912 922.201 559.71 927.054 564.62C928.48 566.063 928.942 566.933 929.487 568.858L928.934 572.311L927.311 573.35C924.439 572.156 921.638 569.642 918.764 570.731C916.562 577.309 918.289 584.292 916.553 590.83C914.745 597.637 907.298 603.495 906.271 610.445C904.651 621.417 907.421 631.107 903.516 642.124C900.132 647.813 896.877 653.143 892.594 658.17C881.889 662.092 873.796 662.786 862.648 660.079C855.816 657.383 850.011 652.117 843.162 649.971C837.215 648.107 827.308 651.362 819.934 650.337L818.485 650.123C809.61 649.797 800.686 645.478 792.255 642.697C791.481 645.361 790.749 648.372 789.579 650.889C788.39 653.449 787.017 654.854 784.436 655.737C782.655 652.911 782.539 651.059 782.683 647.633C783.033 639.327 787.247 625.678 793.111 620.033C795.931 619.244 795.95 619.308 798.64 620.523C800.512 622.894 800.706 624.506 801.02 627.425C801.586 632.683 801.876 633.167 805.59 636.84C806.705 637.201 808.322 637.512 809.28 638.183C824.748 640.004 836.733 638.173 849.124 627.838C852.307 625.182 854.77 622.491 856.983 618.904C851.596 608.71 846.493 598.407 839.804 589.051Z"/>
	<path fill="#D25D90" d="M894.196 616.989L896.082 618.33C897.252 622.724 896.608 627.437 895.257 631.727C892.176 641.511 886.772 645.502 878.666 650.15C871.987 649.185 865.326 648.093 858.589 647.712C855.754 646.267 853.009 645.2 851.105 642.463C853.906 637.933 859.278 636.74 861.751 631.729C862.735 629.736 864.537 625.226 866.012 623.814C866.889 622.975 888.144 619.624 892.679 617.654L894.196 616.989Z"/>
	<path fill="#C6ECFA" d="M955.846 370.512C970.403 384.602 985.513 398.212 996.416 415.72L995.884 419.219C990.354 412.82 980.424 393.986 972.6 392.038L973.113 395.639C974.285 396.619 975.205 397.19 976.604 397.845C981.289 400.038 990.952 417.79 993.57 422.927C1000.05 435.643 1001.4 447.339 1001.93 461.484C1002.26 470.576 1003.12 480.215 1001.86 489.242C999.727 504.561 991.53 518.158 985.476 532.06Q977.377 550.176 971.715 569.263C969.84 564.036 969.886 558.401 968.39 552.997L968.087 551.935C972.042 538.709 979.255 519.534 987.026 508.307C990.824 502.82 991.41 492.681 993.09 485.99C994.092 481.997 995.773 478.44 996.23 474.277C999.383 445.537 981.295 419.419 966.772 397.048C963.044 391.306 958.48 385.6 957.966 378.457C957.775 375.807 957.214 373.905 956.235 371.453C956.109 371.138 955.976 370.825 955.846 370.512Z"/>
	<path d="M919.891 289.159C922.959 289.668 925.883 290.64 928.774 291.81C935.12 294.379 939.226 298.973 941.86 305.442C948.419 321.549 944.2 334.587 938.353 349.881C933.524 346.051 929.015 341.719 924.432 337.575C912.001 327.274 898.333 322.323 885.404 313.531C885.468 308.923 889.505 302.807 892.471 299.412C899.076 291.851 910.495 289.486 919.891 289.159Z"/>
	<path d="M849.879 439.341C859.702 439.122 869.69 439.279 879.238 441.996C884.137 443.39 887.995 445.094 890.552 449.836C891.082 453.914 890.474 456.272 888.269 459.619C883.14 467.407 874.659 469.856 866.206 471.645C854.329 473.54 845.234 472.251 834.112 467.92C831.894 465.182 828.688 461.72 827.975 458.086C827.359 454.951 827.578 452.475 829.197 449.722C831.683 445.496 838.559 442.436 843 441.276C845.304 440.674 847.587 439.992 849.879 439.341Z"/>
	<path d="M733.612 497.034C735.54 497.436 737.037 498.018 738.773 498.983C742.099 500.83 744.821 504.006 745.718 507.858C747.332 514.789 743.44 523.284 740.075 529.038C733.296 540.632 723.554 549.335 710.815 552.665C708.252 552.348 705.196 552.183 702.925 550.817C700.922 549.613 699.405 547.372 698.747 545.103C697.034 539.193 699.525 532.866 702.074 527.645C709.181 513.089 718.425 502.154 733.612 497.034Z"/>
	<path d="M873.479 488.417C881.597 486.837 890.591 488.787 898.399 491.026L898.805 492.166C888.069 496.045 873.545 495.159 862.15 497.438C855.294 498.809 848.711 501.457 841.983 503.37C801.939 514.751 773.368 533.046 745.073 564.757C739.89 570.543 735.5 577.445 730.946 583.79C733.913 573.282 736.72 565.067 743.352 556.383C773.889 516.395 825.622 493.945 873.479 488.417Z"/>
	<path fill="#27B6EA" d="M942.306 664.714C953.152 653.277 965.629 641.185 973.563 627.366C980.614 615.083 984.612 601.037 993.914 590.23C997.544 586.013 1003.63 580.144 1009.3 579.363C1021.23 577.719 1046.74 594.086 1056.45 601.044C1101.32 633.187 1144.05 668.454 1189.03 700.409C1209.71 715.105 1231.76 728.418 1253.26 741.814C1281.23 759.249 1309.75 775.952 1340.01 788.823C1353.63 794.619 1368.32 798.548 1382.39 803.081C1400.28 808.845 1418.36 815.316 1436.95 818.066C1472.79 823.368 1509.04 821.027 1544.89 818.239C1523.37 868.023 1511.76 920.168 1503.43 973.914C1502.01 976.956 1500.65 980.97 1498.8 983.707C1480.7 986.588 1462.23 986.067 1444.03 984.701C1335.93 976.586 1221.75 915.228 1137.01 846.863C1095.68 813.521 1058.45 774.499 1020.07 737.626C995.552 714.068 973.512 677.885 942.306 664.714Z"/>
	<path fill="#F8FCFE" d="M999.01 612.82C1000.95 612.86 1004.08 612.686 1005.56 614.097C1010.3 618.585 1015.8 631.002 1015.41 637.711C1015.21 641.215 1013.8 642.877 1011.36 645.081C1007.07 646.545 1002.76 645.439 998.385 644.814C994.795 644.787 989.761 645.31 986.528 643.368C984.045 641.876 983.69 640.854 982.877 638.23L984.193 635.581C990.484 630.887 994.95 632.439 1002.1 633.584C999.216 626.273 995.985 620.674 999.01 612.82Z"/>
	<path fill="#F8FCFE" d="M1019.95 668.932C1020.91 668.925 1023.05 668.861 1023.95 669.066C1025.67 669.462 1026.45 670.695 1027.35 672.111C1031.77 679.043 1035.62 691.618 1033.55 699.759C1032.89 702.334 1032.96 702.412 1030.63 703.731C1030.22 703.535 1029.8 703.38 1029.41 703.144C1024.27 699.995 1022.52 692.47 1020.59 686.987C1016.56 690.946 1014.27 695.724 1009.64 699.275C1006.59 699.885 1006.27 699.958 1003.42 698.716L1002.66 696.377C1004.41 686.486 1013.97 676.679 1019.95 668.932Z"/>
	<path fill="#F8FCFE" d="M1039.87 659.802C1048.98 661.133 1060.45 660.788 1068.64 665.2C1070.07 667.442 1070.27 668.577 1070.31 671.252C1065.11 677.137 1057.47 671.146 1051.78 674.547L1052.12 677.508C1053.21 680.734 1054.71 684.758 1054.49 688.226C1054.31 690.931 1053.76 692.297 1051.66 693.943C1050.68 693.859 1050.05 693.884 1049.1 693.372C1041.54 689.313 1038.69 676.589 1037.39 668.645C1036.72 664.561 1037.7 662.962 1039.87 659.802Z"/>
	<path fill="#F8FCFE" d="M981.668 654.099C988.693 654.352 997.625 653.789 1004.32 655.804C1007.56 656.778 1008.82 657.873 1010.46 660.88C1010.29 669.49 1001.27 678.661 996.232 685.248C996.022 685.396 995.833 685.58 995.604 685.692C992.584 687.166 992.004 687.1 988.894 686.275C987.913 685.132 986.946 684.609 986.952 682.969C986.972 677.365 993.238 670.93 996.483 666.729C990.392 666.461 984.138 667.224 979.595 662.485C979.31 658.581 980.065 657.55 981.668 654.099Z"/>
	<path fill="#F8FCFE" d="M1058.56 621.186C1060.45 621.28 1062.18 621.636 1064.03 621.997C1066.23 624.124 1066.28 623.877 1066.42 626.969C1064.17 632.239 1060.3 636.021 1056.55 640.171C1062.05 640.712 1068.58 640.63 1073.14 644.186C1074.21 647.285 1073.95 647.485 1072.97 650.666C1070.73 652.428 1070.42 652.495 1067.61 652.719C1061.68 652.36 1054.63 652.589 1048.94 650.843C1045.55 649.803 1043.76 648.311 1042.08 645.16C1042.59 636.484 1052.99 627.449 1058.56 621.186Z"/>
	<path fill="#F8FCFE" d="M1020.06 604.857C1021.51 605.12 1023.05 605.389 1024.4 606.058C1029.04 608.358 1030.61 615.972 1032.21 620.625C1035.05 617.148 1038.25 612.139 1042.58 610.724C1045.33 609.823 1047.07 609.89 1049.6 611.178L1050.18 614.226C1048.96 618.715 1046.38 621.245 1043.37 624.6C1040.36 628.384 1035.91 635.457 1031.37 636.961C1029.99 637.418 1028.64 636.945 1027.48 636.09C1022.01 632.093 1019.59 620.45 1018.06 614.136C1017.03 609.865 1018.02 608.425 1020.06 604.857Z"/>
	<defs>
		<linearGradient id="gradient_0" gradientUnits="userSpaceOnUse" x1="1421.8724" y1="577.72461" x2="1242.26" y2="378.2901">
			<stop offset="0" stop-color="#CFEEFC"/>
			<stop offset="1" stop-color="white"/>
		</linearGradient>
	</defs>
	<path fill="url(#gradient_0)" d="M1387.04 314.11C1395.4 311.364 1404.11 309.148 1412.37 313.774C1414.35 314.885 1416.09 316.541 1417.78 318.079C1424.33 338.064 1430.08 354.605 1425.91 375.947C1422.49 373.85 1418.73 370.881 1414.72 370.455L1413.22 371.436C1413.16 374.571 1413.49 375.998 1415.52 378.438C1419.55 383.282 1425.93 386.695 1430.84 390.563C1445.14 401.821 1455.74 414.781 1464.41 431.054C1467.53 436.907 1474.74 458.607 1479.78 460.011C1481.94 456.638 1481.14 451.798 1480.41 448.045C1478.96 440.529 1475.57 434.242 1472.11 427.582C1460.76 405.779 1447.03 392.39 1428.02 377.628C1431.15 371.584 1435.04 364.215 1435.79 357.297C1436.37 351.92 1432.2 337.037 1434.51 333.229C1437.47 328.356 1466.9 319.302 1473.23 317.355C1490.25 312.111 1526.1 307.138 1542.46 316.4C1556.88 324.564 1564.72 342.58 1568.72 358.348C1575.45 384.863 1573.93 415.038 1560.45 438.962C1538.32 478.215 1498.45 507.717 1459.72 527.317C1451.91 531.272 1437.42 535.64 1431.7 542.072L1433.39 544.359C1440.51 545.3 1447.46 543.435 1454.42 542.041C1439 557.998 1423.86 574.662 1407.51 589.592C1373.11 621.014 1332.88 647.676 1292.85 670.738C1286.2 674.569 1275.5 683.534 1268.23 684.947C1263.56 687.064 1259.26 689.372 1254.92 692.133C1240.36 679.681 1224.87 669.093 1209.74 657.478C1193 645.026 1176.13 634.216 1157.93 624.254C1157.65 624.359 1157.38 624.476 1157.1 624.569C1149.92 626.948 1144.63 625.432 1140.26 633.187C1139.21 635.044 1138.54 637.138 1137.78 639.13C1136.89 641.446 1136.1 644.017 1134.72 646.062C1123.55 639.44 1112.95 630.667 1102.73 622.564C1102.79 622.125 1102.86 621.687 1102.92 621.247C1104.81 606.83 1102.17 586.849 1097.14 573.202C1095.2 567.927 1078.36 537.904 1079.4 534.527C1079.45 534.356 1080.84 533.054 1081.12 532.83C1094.98 521.922 1125.26 517.06 1142.58 512.433C1203.58 496.14 1252.67 477.923 1303.94 438.827C1316.41 429.323 1329.7 418.9 1340.34 407.269C1354.28 392.039 1357.72 363.05 1366.28 344.319C1371.46 332.994 1379.18 323.51 1387.04 314.11Z"/>
	<path fill="#C6ECFA" d="M1209.74 657.478L1211.18 657.705C1218.85 658.841 1226.16 657.89 1233.86 657.94L1234.25 658.804L1229.92 661.081L1229.3 663.468L1223.06 664.416L1226.04 665.307L1223.91 667.162L1225.1 665.328C1237.39 669.579 1242.61 671.085 1250.36 682.044C1251.28 683.341 1252.79 686.349 1253.87 687.107C1256.88 689.215 1263.14 683.16 1268.23 684.947C1263.56 687.064 1259.26 689.372 1254.92 692.133C1240.36 679.681 1224.87 669.093 1209.74 657.478Z"/>
	<path fill="#F8FCFE" d="M1263.2 1664.18C1265.26 1665.19 1266.85 1666.55 1268.37 1668.29C1276.13 1677.18 1289.56 1697.78 1289.24 1709.87C1283.44 1720.06 1270.71 1728.15 1261.54 1734.96C1205.04 1776.92 1140.38 1808.09 1074.92 1831.94C1039.21 1844.95 1001.02 1856.31 963.911 1863.85C927.609 1871.22 831.656 1881.85 798.952 1864.73C779.578 1854.59 771.029 1829.16 764.337 1809.42Q763.525 1803.05 763.002 1796.64C762.571 1790.91 761.5 1779.06 765.144 1774.67C770.2 1777.1 777.797 1792.97 782.065 1798.28C789.505 1807.54 798.324 1815.31 807.025 1823.24C835.331 1825.01 865.947 1823.37 894.073 1819.6C924.937 1815.46 953.624 1807.75 983.188 1797.78C990.583 1795.29 1001.91 1793.59 1006.84 1786.96C1008.09 1780.41 1004.05 1773.97 1001.27 1768.32C1007.12 1766.41 1014.43 1763.23 1020.6 1764.12C1023.04 1764.47 1023.33 1764.75 1024.79 1766.63C1024.68 1769.56 1024.6 1771.87 1025.56 1774.71C1026.73 1775.58 1026.76 1775.72 1028.35 1776.28C1042.3 1781.21 1098.97 1756.43 1113.73 1748.48C1126.6 1741.53 1138.85 1732.95 1151.1 1724.87C1151.1 1717.18 1149.73 1710.42 1147.66 1703.11C1154.39 1698.68 1160.84 1693.88 1167.31 1689.05C1172.84 1695.95 1177.62 1703.82 1182.62 1711.16C1195.85 1702.61 1210.51 1696.47 1224.26 1688.86C1237.71 1681.42 1250.32 1672.59 1263.2 1664.18Z"/>
	<path fill="#27B6EA" d="M923.757 681.618Q925.289 681.641 926.809 681.836C953.017 684.938 972.486 711.463 987.921 730.975C958.032 759.403 913.509 784.202 874.016 794.623C833.397 805.341 755.464 817.53 718.383 794.561C713.556 791.535 708.44 789.252 703.575 786.348Q701.475 785.091 699.524 783.599Q697.573 782.108 695.794 780.399Q694.015 778.69 692.432 776.786Q690.848 774.882 689.479 772.806C682.17 761.508 679.022 747.309 674.065 734.81C669.904 724.319 664.886 714.888 661.961 703.828Q677.879 711.437 694.56 717.014C728.83 728.302 771.113 729.626 803.684 712.07C808.871 712.827 814.048 713.511 819.283 713.785C854.038 715.605 897.171 706.707 923.757 681.618Z"/>
	<path fill="#F8FCFE" d="M1671.77 1417.21C1681.76 1414.98 1750.1 1461.55 1778.72 1458.81C1792.64 1457.48 1807.59 1447.42 1821.08 1442.94C1821.37 1447.64 1821.84 1452.55 1821.53 1457.25C1819.95 1481.01 1806.49 1496.27 1789.93 1510.95C1780.39 1511.93 1772.8 1512.88 1763.61 1509.16C1730.94 1500.63 1674.33 1472.58 1644.18 1454.96C1626.87 1444.83 1610.22 1433.47 1592.65 1423.82C1620.17 1424.38 1645.07 1427.06 1671.77 1417.21Z"/>
	<path fill="#C6ECFA" d="M1134.72 646.062C1136.1 644.017 1136.89 641.446 1137.78 639.13C1138.54 637.138 1139.21 635.044 1140.26 633.187C1144.63 625.432 1149.92 626.948 1157.1 624.569C1157.38 624.476 1157.65 624.359 1157.93 624.254C1158.16 624.551 1158.38 624.851 1158.62 625.145C1178 649.53 1206.27 667.027 1230.27 686.056C1255.6 706.142 1279.36 727.166 1301.94 750.532C1305.43 754.134 1313.55 760.668 1314.9 765.53C1302.27 764.495 1203.01 698.187 1184.23 684.799C1167.66 672.993 1149.96 660.151 1134.94 646.338C1134.85 646.259 1134.8 646.154 1134.72 646.062Z"/>
	<path fill="#688FC9" d="M936.667 1604.26C938.721 1603.87 939.523 1604.15 941.402 1605.05C941.475 1605.73 941.783 1606.42 941.621 1607.08C940.725 1610.74 909.074 1637.46 903.729 1644.83C887.548 1667.14 862.112 1717.41 860.394 1745.35C859.8 1755 861.608 1765.43 862.906 1774.96L861.819 1776.15L858.923 1775.16C854.944 1774.27 851.306 1773.61 848.735 1769.94C842.87 1761.57 844.424 1733.34 846.242 1722.77C852.598 1685.8 878.369 1642.12 907.565 1619.76C915.953 1613.33 927.062 1611.77 935.017 1605.6C935.576 1605.16 936.117 1604.71 936.667 1604.26Z"/>
	<path fill="#27B6EA" d="M1046.59 512.19C1047.98 512.849 1048.89 513.182 1050.08 514.362C1057.32 521.545 1081.94 565.508 1085.69 575.716C1087.42 580.433 1087.86 586.307 1088.17 591.328C1088.53 597.12 1089.14 604.519 1085.3 609.011C1081.21 608.679 1072.89 600.378 1069.38 597.49C1063.33 594.773 1058.25 589.727 1052.53 586.259C1040.76 579.124 1028.25 575.418 1015.31 571.359C1030.37 556.437 1045.58 534.395 1046.59 512.19Z"/>
	<path fill="#F8FCFE" d="M1077.37 1561.09C1080.03 1560.61 1081.21 1560.4 1083.66 1561.67C1086.16 1566.56 1084.35 1571.76 1083.23 1576.96C1080.64 1579.12 1077.94 1581.48 1075.02 1583.16C1046.99 1599.26 985.52 1604.61 954.481 1596.42C948.203 1595.51 940.991 1594.86 936.525 1589.51C935.303 1588.05 935.737 1588.28 935.811 1586.05C936.938 1584.37 937.041 1583.43 939.263 1583C945.271 1581.84 964.414 1582.87 972.664 1582.26C1008.61 1579.57 1043.29 1573.48 1077.37 1561.09Z"/>
	<path fill="#688FC9" d="M1613.52 1216.54C1620.73 1218.69 1631.52 1228.04 1637.44 1233.07C1666.15 1257.5 1709.12 1303.78 1712.44 1343.69C1713.54 1356.92 1711.98 1373.24 1703.39 1383.68L1702.07 1383.25L1702.16 1380.31C1705.42 1367.39 1707.51 1353.09 1703 1340.14C1692.4 1309.71 1632.66 1243.63 1603.7 1230.21C1601.81 1229.33 1601.88 1229 1600.76 1227.29C1602.83 1223.22 1609.88 1219.37 1613.52 1216.54Z"/>
	<path fill="#688FC9" d="M1138.33 1435.75C1139.89 1436.21 1140.24 1436.21 1141.77 1437.23C1146.19 1440.17 1152.22 1450.11 1155.74 1454.53C1182.07 1487.67 1217.37 1536.82 1224.27 1579.71C1226.11 1591.1 1225.44 1598.92 1218.84 1608.46C1214.66 1601.92 1211.65 1581.68 1208.97 1573.04Q1205.96 1563.34 1202.09 1553.98Q1198.23 1544.61 1193.55 1535.66Q1186.61 1522.26 1178.65 1509.49Q1170.69 1496.72 1161.77 1484.65C1151.9 1471.53 1136.6 1455.5 1129.42 1440.82C1131.36 1437.96 1135.3 1437 1138.33 1435.75Z"/>
	<path fill="#F8FCFE" d="M1059.01 1498.96C1063.39 1501.79 1065.84 1507.05 1068.48 1511.49C1030.31 1538.95 979.623 1547.76 933.831 1549.56C932.757 1549.57 931.106 1549.6 930.08 1549.51C927.748 1549.32 926.949 1549.52 925.514 1547.63C934.303 1540.82 957.004 1538.34 968.324 1534.69C980.055 1530.9 991.316 1525.15 1002.81 1520.63C1021.52 1513.28 1040.45 1506.77 1059.01 1498.96Z"/>
	<path fill="#C6ECFA" d="M1087.01 1737.05C1095.31 1737.03 1103.76 1736.7 1112.04 1737.31C1111.91 1737.41 1111.78 1737.5 1111.65 1737.59C1108.82 1739.74 1106 1741.56 1102.81 1743.07C1089.9 1749.16 1044.33 1768.63 1033.24 1764.38C1031.18 1762.01 1031.06 1762.1 1030.96 1758.94C1031.68 1758.18 1032.22 1757.18 1033.11 1756.66C1036.06 1754.94 1041.35 1754.27 1044.7 1752.95C1056.92 1748.15 1069.64 1740.98 1082.19 1737.55C1083.9 1737.08 1085.26 1737.07 1087.01 1737.05Z"/>
	<path fill="#C6ECFA" d="M1278.26 1737.12L2028.12 1737.08Q2019.49 1747.92 2010.62 1758.54Q2001.75 1769.17 1992.64 1779.58Q1983.53 1789.98 1974.19 1800.17Q1964.85 1810.35 1955.29 1820.31Q1945.72 1830.26 1935.93 1839.98Q1926.15 1849.7 1916.14 1859.18Q1906.14 1868.66 1895.92 1877.9Q1885.71 1887.13 1875.29 1896.12Q1864.87 1905.11 1854.25 1913.84Q1843.63 1922.57 1832.82 1931.04Q1822.01 1939.51 1811.01 1947.71Q1800.01 1955.92 1788.83 1963.86Q1777.64 1971.79 1766.29 1979.46Q1754.93 1987.12 1743.4 1994.51Q1731.88 2001.9 1720.19 2009Q1708.5 2016.11 1696.65 2022.93Q1684.8 2029.75 1672.81 2036.28Q1660.81 2042.81 1648.67 2049.05Q1636.53 2055.28 1624.25 2061.23Q1611.97 2067.17 1599.57 2072.81Q1587.16 2078.46 1574.63 2083.8Q1562.09 2089.14 1549.45 2094.17Q1536.8 2099.21 1524.04 2103.94Q1511.28 2108.67 1498.42 2113.08Q1485.56 2117.5 1472.6 2121.6Q1459.64 2125.71 1446.6 2129.5Q1433.55 2133.29 1420.42 2136.76Q1407.3 2140.23 1394.09 2143.38Q1380.89 2146.54 1367.62 2149.37Q1354.35 2152.2 1341.02 2154.71Q1327.69 2157.22 1314.31 2159.4Q1300.93 2161.59 1287.5 2163.45C1277.09 2164.79 1263.29 2164.9 1253.59 2168.15C1215.91 2171.21 1178.53 2174.44 1140.71 2175.04C1037.66 2176.68 937.204 2162.29 836.96 2138.59C825.993 2133.73 812.01 2131.5 800.326 2128.12Q768.538 2119.04 737.436 2107.68C623.779 2066.5 520.811 2009.2 423.273 1936.22C403.431 1919.84 383.176 1904.21 363.872 1887.1C312.213 1841.32 265.851 1791.19 222.109 1737.35L835.945 1737.2C837.02 1749.44 834.634 1775.08 844.302 1783.58C858.216 1795.82 918.758 1785.2 937.157 1782.68C950.751 1780.81 964.964 1777.64 978.292 1774.35C981.573 1773.54 985.153 1771.86 988.527 1771.81C990.918 1771.77 991.785 1772.39 993.685 1773.68C995.137 1776.68 995.249 1778.2 995.179 1781.45C992.265 1785.26 985.432 1785.96 981.073 1787.6C951.47 1798.74 922.435 1806.15 891.136 1809.92C867.274 1812.8 843.04 1812.91 819.248 1816.11C802.442 1807.82 788.921 1795.7 779.39 1778.93C776.287 1773.46 773.425 1766.52 769.16 1761.97C766.932 1759.59 765.398 1760.06 762.513 1760.36C758.526 1762.72 757.068 1766.28 754.053 1769.62C748.906 1793.67 752.541 1822.53 765.4 1843.61C777.494 1863.44 786.013 1874.46 809.089 1879.6C929.569 1906.41 1141.24 1830.44 1241.79 1762.47C1250.73 1756.43 1269.94 1739.83 1278.26 1737.12Z"/>
	<path fill="#27B6EA" d="M562.253 259.387C564.231 259.944 565.491 260.782 567.162 261.996C569.463 266.238 568.671 271.425 568.56 276.157C571.248 274.488 576.156 270.717 579.173 270.402C582.124 270.094 582.865 270.966 584.819 272.881C584.845 275.817 584.509 275.851 582.704 278.176C577.421 281.459 568.769 288.592 562.5 287.274C560.858 285.465 560.096 284.67 559.591 282.134C558.223 275.272 558.581 265.241 562.253 259.387Z"/>
	<path fill="#27B6EA" d="M560.755 309.384C566.83 309.683 575.632 313.834 579.965 318.312C582.4 320.829 583.969 322.768 584.093 326.373L581.864 327.472C577.79 327.41 575.259 325.674 571.792 323.604L570.086 322.84C567.533 325.133 568.513 333.419 566.728 337.323L564.701 337.984C563.225 337.255 561.95 336.992 561.035 335.492C557.393 329.527 558.996 315.908 560.755 309.384Z"/>
	<path fill="#27B6EA" d="M789.715 160.583C791.611 161.094 792.805 161.845 794.413 162.993C796.509 167.06 795.707 172.358 795.581 176.855C795.919 176.652 796.255 176.445 796.595 176.246C797.161 175.914 797.734 175.596 798.298 175.261C802.548 172.743 805.539 170.884 810.542 172.284C812.362 172.793 812.233 173.325 813.148 174.856L812.099 173.108L811.714 177.253L807.102 180.495C803.515 182.673 799.628 185.479 795.747 186.988C792.923 188.085 790.641 187.734 787.926 186.511C786.506 184.506 785.564 183.522 785.359 180.954C784.9 175.173 786.356 164.803 789.715 160.583Z"/>
	<path fill="#27B6EA" d="M587.813 284.8C588.229 284.851 588.658 284.836 589.061 284.954C591.409 285.641 592.561 286 593.814 288.14C591.98 293.991 586.201 296.143 581.273 298.806C585.46 301.063 592.074 304.095 593.708 309.048C594.19 310.509 593.89 310.318 593.097 311.694C591.03 312.437 589.402 312.481 587.235 312.605C582.334 309.919 574.048 306.595 570.738 301.935C569.804 300.621 569.287 299.335 569.835 297.78C571.855 292.056 582.852 287.587 587.813 284.8Z"/>
	<path fill="#27B6EA" d="M543.791 309.96C545.468 309.695 546.476 310.038 548.104 310.437C549.034 311.458 549.247 311.557 549.896 313.029C551.967 317.725 551.512 327.936 549.722 332.684C548.676 335.457 547.901 336.407 545.26 337.419L542.519 335.59C540.716 331.566 541.426 326.232 541.497 321.862C538.516 323.564 534.959 326.038 531.569 326.664C528.918 327.154 526.818 326.592 524.741 324.986C524.839 324.645 524.895 324.288 525.034 323.962C527.792 317.499 538.117 313.11 543.791 309.96Z"/>
	<path fill="#27B6EA" d="M770.709 210.834C771.1 210.775 771.486 210.654 771.881 210.657C774.688 210.676 775.243 211.44 777.187 213.312C778.788 217.991 778.738 223.541 777.56 228.331C776.585 232.292 775.115 236.764 771.561 238.896L769.841 237.943C768.142 232.951 768.574 227.617 768.573 222.384L764.673 224.639C762.509 225.896 759.979 227.742 757.625 228.512C755.361 229.253 753.474 228.162 751.48 227.171L751.041 225.384C754.467 218.671 764.527 214.353 770.709 210.834Z"/>
	<path fill="#27B6EA" d="M814.852 185.662C815.095 185.686 815.344 185.674 815.581 185.734C818.263 186.408 819.135 186.432 820.86 188.703L820.105 191.343C816.598 195.223 812.798 197.212 808.334 199.647C811.157 201.212 814.285 202.775 816.847 204.753C819.265 206.62 820.312 208.041 820.813 211.071C818.833 213.035 817.383 213.148 814.73 213.559C808.944 210.423 798.969 206.728 796.734 199.911C799.184 192.344 808.422 189.205 814.852 185.662Z"/>
	<path fill="#27B6EA" d="M771.85 160.46C773.99 161.4 775.783 161.721 776.678 164.226C778.189 168.458 780.054 180.827 777.658 184.614C776.736 186.07 775.585 186.946 773.981 187.359C768.319 188.817 762.703 184.031 758.07 181.132C755.191 179.572 752.664 177.932 751.552 174.635L752.761 172.79C759.765 171.228 762.697 173.407 768.563 176.985C768.403 170.538 767.394 165.536 771.85 160.46Z"/>
	<path fill="#27B6EA" d="M544.415 259.253C545.557 259.73 546.68 260.146 547.736 260.824C549.886 262.205 550.016 265.542 550.377 267.877L550.671 269.848C551.281 273.738 552.654 278.861 551.081 282.677C549.894 285.555 548.466 285.941 545.919 287.111C541.177 287.216 537.356 284.189 533.369 281.803C533.069 281.626 532.766 281.454 532.468 281.273L531.047 280.396C528.806 279.039 527.094 278.24 525.68 275.842C524.624 274.051 525.136 273.942 525.688 272.155C526.195 271.976 526.693 271.763 527.21 271.618C532.912 270.026 536.916 273.438 541.568 276.33C541.397 269.736 540.666 264.849 544.415 259.253Z"/>
	<path fill="#27B6EA" d="M745.111 185.337C751.101 185.727 761.137 191.493 765.718 195.529C767.829 197.389 768.404 198.427 768.519 201.238C764.526 205.835 758.178 208.533 752.976 211.468L747.539 213.952L744.274 211.418L744.099 213.185C743.867 211.837 743.697 211.695 744.024 210.357C745.482 204.391 750.802 202.26 755.561 199.71C751.692 197.637 748.034 195.785 744.752 192.767C743.476 189.283 744.048 188.774 745.111 185.337Z"/>
	<path fill="#27B6EA" d="M517.816 284.455C523.648 284.867 533.358 290.467 537.961 294.195C540.38 296.154 541.143 297.292 541.486 300.402C537.562 305.174 530.799 307.938 525.516 310.89L521.318 312.828C518.472 311.968 518.162 311.83 516.226 309.516L516.633 307.241C519.932 303.328 524.168 301.421 528.543 299.072C524.746 296.963 521.12 295.017 517.807 292.123C516.367 288.536 516.859 288.072 517.816 284.455Z"/>
	<path fill="#27B6EA" d="M786.693 229.597C786.407 224.388 785.53 219.074 787.601 214.19C789.645 212.186 790.597 210.876 793.654 210.887C798.72 210.907 805.204 216.495 808.136 220.399C809.826 222.649 810.433 224.104 810.289 226.915C807.81 227.865 806.372 228.229 803.81 227.192C801.035 226.07 798.184 223.964 795.625 222.368C795.72 227.16 796.328 232.055 794.369 236.505L790.862 239.701C790.338 234.946 789.752 233.107 786.693 229.597Z"/>
</svg>
